<svg width="40" height="40" viewBox="0 0 40 40" fill="none" xmlns="http://www.w3.org/2000/svg">
<path fill-rule="evenodd" clip-rule="evenodd" d="M17.5457 7.65584C17.5216 7.58325 17.4811 7.51643 17.4262 7.46107C17.3323 7.36631 17.2045 7.313 17.0711 7.31299L13.0073 7.31268C11.8475 7.31282 10.881 8.2298 10.8787 9.39121L10.8376 29.9458C10.8353 31.1081 11.7994 32.0261 12.96 32.026L17.0236 32.0255C17.1941 32.0255 17.3528 31.9386 17.4447 31.795C17.6457 31.481 17.828 31.1602 17.9973 30.8623L17.9973 30.8623L17.9978 30.8614L17.9982 30.8607C18.0415 30.7845 18.084 30.7097 18.1257 30.637C18.3358 30.2707 18.529 29.9507 18.7391 29.6817C19.1414 29.1665 19.579 28.8666 20.2809 28.8665C20.9795 28.8664 21.4009 29.163 21.7949 29.6776C22.0017 29.9478 22.1921 30.2682 22.4052 30.6377L22.4735 30.7563C22.6634 31.0866 22.8712 31.4479 23.1105 31.8038C23.2034 31.9419 23.359 32.0248 23.5255 32.0248L27.5892 32.0243C28.749 32.0242 29.7154 31.1072 29.7177 29.9458L29.7588 9.39119C29.7611 8.22888 28.797 7.3109 27.6364 7.31104L23.5711 7.31149C23.4326 7.31151 23.3004 7.36896 23.2058 7.47015C23.1604 7.51881 23.1256 7.5755 23.1028 7.63661C22.867 7.98673 22.6636 8.33581 22.4782 8.65394L22.4319 8.73339C22.2145 9.10586 22.0241 9.42536 21.8182 9.69419C21.615 9.95945 21.4121 10.1542 21.1832 10.2849C20.9593 10.4127 20.685 10.4937 20.3155 10.4938C19.6086 10.4939 19.1626 10.1962 18.7606 9.68764C18.5507 9.42217 18.3581 9.10433 18.1532 8.73983C18.0897 8.62703 18.0242 8.50793 17.9567 8.38534L17.9565 8.38506C17.8267 8.14931 17.6896 7.9002 17.5457 7.65584ZM21.9343 13.655C21.6581 13.655 21.4343 13.8789 21.4343 14.155C21.4343 14.4312 21.6581 14.655 21.9343 14.655L25.1871 14.655C25.4633 14.655 25.6871 14.4312 25.6871 14.155C25.6871 13.8789 25.4633 13.655 25.1871 13.655L21.9343 13.655ZM15.4291 14.6558L18.6819 14.6558C18.9581 14.6558 19.1819 14.4319 19.1819 14.1558C19.1819 13.8796 18.9581 13.6558 18.6819 13.6558L15.4291 13.6558C15.1529 13.6558 14.9291 13.8796 14.9291 14.1558C14.9291 14.4319 15.1529 14.6558 15.4291 14.6558ZM21.9139 25.7062H25.1667C25.4429 25.7062 25.6667 25.4823 25.6667 25.2062C25.6667 24.93 25.4429 24.7062 25.1667 24.7062H21.9139C21.6377 24.7062 21.4139 24.93 21.4139 25.2062C21.4139 25.4823 21.6377 25.7062 21.9139 25.7062ZM15.4082 25.707L18.6611 25.707C18.9372 25.707 19.1611 25.4832 19.1611 25.207C19.1611 24.9309 18.9372 24.707 18.6611 24.707L15.4082 24.707C15.1321 24.707 14.9082 24.9309 14.9082 25.207C14.9082 25.4832 15.1321 25.707 15.4082 25.707Z" fill="url(#paint0_linear)"/>
<defs>
<linearGradient id="paint0_linear" x1="20.3207" y1="7.31104" x2="20.3207" y2="32.026" gradientUnits="userSpaceOnUse">
<stop stop-color="#B727F3"/>
<stop offset="1" stop-color="#DB4CAA"/>
</linearGradient>
</defs>
</svg>
